<svg id="Layer_2" data-name="Layer 2" xmlns="http://www.w3.org/2000/svg" viewBox="0 0 382.59 261.93"><defs><style>.cls-1{fill:#3cbf3c;}</style></defs><path class="cls-1" d="M363.64,478.4V351h10.13q-28.87,0-57.76,0a121,121,0,0,0-6.36,39.22C309.65,435.39,333.23,472.8,363.64,478.4Z" transform="translate(-236.41 -232.95)"/><path class="cls-1" d="M378.64,351v127.5c30.83-5.05,54.86-42.73,54.86-88.32A120.8,120.8,0,0,0,427.13,351q-26.07,0-52.13.05Z" transform="translate(-236.41 -232.95)"/><path class="cls-1" d="M612.89,322.29c-12-6.41-25-6.61-38-5.28-4.9.5-6.42-.86-7.56-5.35-4-15.81-13.64-27.58-27.51-35.87-1.24-.73-4.54-.36-5.19.62-13.14,19.83-18.15,40.76-7,63.24,2,3.92.93,5.71-2.71,6.39-9.64,1.8-19.34,4.69-29,4.74q-26.52.12-53,.17c.2.68.38,1.37.57,2.05H467.5a7.5,7.5,0,0,1,0,15H446.73a140.27,140.27,0,0,1,1.77,22.22c0,2.61-.09,5.2-.23,7.78H467.5a7.5,7.5,0,0,1,0,15H446.64a126.44,126.44,0,0,1-8.71,30H458.5a7.5,7.5,0,0,1,0,15h-27a7.67,7.67,0,0,1-1.45-.14c-1.06,1.67-2.15,3.32-3.3,4.91-14.56,20.22-34.15,31.36-55.18,31.36S331,483,316.4,462.77c-1.07-1.47-2.08-3-3.07-4.54a7.75,7.75,0,0,1-1.88.24h-27a7.5,7.5,0,0,1,0-15h21a125.91,125.91,0,0,1-8.86-30H275.45a7.5,7.5,0,0,1,0-15H294.9c-.15-2.73-.25-5.48-.25-8.25a140.51,140.51,0,0,1,1.69-21.75H275.45a7.5,7.5,0,0,1,0-15h24.12c.24-.83.46-1.68.71-2.5l-47.26-.1c-8.31,0-14.12,2.19-16.61,10.52v4.49c.3,2.6.77,5.19.87,7.79a171.15,171.15,0,0,0,10.61,53c11.88,32.46,33.77,53.91,68.06,61.9s68.84,8.17,103.34,1.51c34.11-6.59,64.49-21,90-44.92,21.54-20.24,36.53-44.91,47.36-72.09,2.92-7.33,6.69-9.52,14.36-9.95,20.32-1.11,36.26-10.34,45.86-28.9C620.4,327.4,619.84,326,612.89,322.29Z" transform="translate(-236.41 -232.95)"/><path class="cls-1" d="M421,336.65c-11.32-21.45-29.24-35.33-49.39-35.33s-38.07,13.88-49.38,35.33Z" transform="translate(-236.41 -232.95)"/><path class="cls-1" d="M304.37,336.65h1.22a106.44,106.44,0,0,1,10.81-19,93.45,93.45,0,0,1,6.17-7.69l-8.83-17.65a7.5,7.5,0,1,1,13.42-6.71L334,299.38c11.31-8.53,24.13-13.06,37.53-13.06s26,4.45,37.23,12.82l7-14a7.5,7.5,0,0,1,13.42,6.7l-8.91,17.82a94.21,94.21,0,0,1,6.45,8,105.57,105.57,0,0,1,10.77,18.9,18,18,0,0,0,16.4-17.92V251a18,18,0,0,0-18-18H304.37a18,18,0,0,0-18,18v67.7A18,18,0,0,0,304.37,336.65Z" transform="translate(-236.41 -232.95)"/></svg>