<svg xmlns="http://www.w3.org/2000/svg" viewBox="0 0 468.18 467.17"><defs><style>.cls-1{fill:#848484;}</style></defs><g id="Layer_9" data-name="Layer 9"><path class="cls-1" d="M614.28,301.31,553.55,291a175.53,175.53,0,0,0-13.95-33.26l35.52-50.49a10.18,10.18,0,0,0-1.13-13l-39.7-39.69a10.18,10.18,0,0,0-13.16-1.06L470.64,190a169,169,0,0,0-34.15-14l-10.3-61.68a10.18,10.18,0,0,0-10-8.51h-56a10.19,10.19,0,0,0-10,8.49l-10.27,60.69a183,183,0,0,0-34.29,14L255.1,153.39a10.17,10.17,0,0,0-13,1.14l-39.7,39.69a10.18,10.18,0,0,0-1.14,13l35.57,50.53a169.23,169.23,0,0,0-14,34.2l-59.57,9.3a10.18,10.18,0,0,0-8.61,10v56a10.18,10.18,0,0,0,8.49,10l60.67,10.26a183,183,0,0,0,14,34.23L202.3,471.31a10.17,10.17,0,0,0,1.07,13.12l39.7,39.7a10.18,10.18,0,0,0,13,1.13l50.53-35.56a169.3,169.3,0,0,0,34.27,14l10.26,60.69a10.18,10.18,0,0,0,10,8.49h56a10.18,10.18,0,0,0,10-8.33l11.22-60.81a183.39,183.39,0,0,0,34.39-14l50.49,35.54a10.18,10.18,0,0,0,13.06-1.13L576,484.43a10.18,10.18,0,0,0,1.06-13.16l-36.42-50.45a175.79,175.79,0,0,0,13.94-33.22l59.73-10.26a10.19,10.19,0,0,0,8.45-10v-56A10.18,10.18,0,0,0,614.28,301.31ZM311.49,279.67a18,18,0,0,1,18-18h78.36a18,18,0,0,1,18,18v34.77a18,18,0,0,1-18,18H329.49a18,18,0,0,1-18-18Zm225.56,51.14c-6.56,12.67-17.43,19-31.3,19.73-5.24.28-7.81,1.78-9.81,6.78-7.39,18.56-17.62,35.39-32.32,49.2-17.4,16.35-38.13,26.16-61.41,30.66a167.4,167.4,0,0,1-70.53-1c-23.4-5.45-38.34-20.09-46.45-42.25A116.9,116.9,0,0,1,278,357.7c-.06-1.77-.39-3.54-.59-5.31v-3.07c1.7-5.68,5.66-7.19,11.34-7.18q82.88.23,165.76-.06c6.61,0,13.22-2,19.81-3.23,2.48-.47,3.18-1.68,1.84-4.37-7.63-15.33-4.21-29.62,4.76-43.15.44-.67,2.7-.93,3.54-.42,9.46,5.65,16,13.69,18.78,24.48.78,3.06,1.81,4,5.16,3.65,8.88-.91,17.75-.77,26,3.6C539.08,325.17,539.47,326.13,537.05,330.81Z" transform="translate(-154.59 -105.74)"/></g></svg>